<svg xmlns="http://www.w3.org/2000/svg" viewBox="0 0 639 976"><defs><style>.cls-1{fill:#010d1d;}.cls-2,.cls-3{fill:#2a313c;}.cls-2{opacity:0.4;}.cls-2,.cls-4{isolation:isolate;}.cls-4{fill:#fff;opacity:0.1;}</style></defs><title>Слой 1</title><g id="Слой_2" data-name="Слой 2"><g id="Слой_1-2" data-name="Слой 1"><rect class="cls-1" width="639" height="976"/><path class="cls-2" d="M471.2,450.9c-2.25-24.75-8.85-51.15-57-51.15H222.8c-48.15,0-54.6,26.4-57,51.15l-8.4,91.35a41,41,0,0,0,10.5,31.35,42.08,42.08,0,0,0,31.2,13.65h28.2c24.3,0,28.95-14,31.95-23.1l3-9c3.45-10.35,4.35-12.9,17.85-12.9h76.8c13.5,0,14,1.5,17.85,12.9l3,9c3,9.15,7.65,23.1,31.95,23.1h28.2a42.32,42.32,0,0,0,31.2-13.65,41,41,0,0,0,10.5-31.35Z"/><path class="cls-3" d="M453.5,354.75H438.2l-5.7-27.15c-5.4-26.25-16.65-50.4-61.35-50.4H265.85c-44.7,0-56,24.15-61.35,50.4l-5.7,27.15H183.5a11.25,11.25,0,0,0,0,22.5h10.65l-6.3,30c8.1-4.65,19.35-7.5,35-7.5H414.2c15.6,0,26.85,2.85,34.95,7.5l-6.3-30H453.5a11.25,11.25,0,0,0,0-22.5Z"/><path class="cls-3" d="M273.5,482.25h-45a11.25,11.25,0,0,1,0-22.5h45a11.25,11.25,0,0,1,0,22.5Z"/><path class="cls-3" d="M408.5,482.25h-45a11.25,11.25,0,0,1,0-22.5h45a11.25,11.25,0,0,1,0,22.5Z"/><path class="cls-4" d="M170.62,164.32l-3.69-5.09,5.09-3.7a1.44,1.44,0,0,0-1.7-2.33l-5.09,3.69-3.7-5.09a1.44,1.44,0,0,0-2.33,1.7h0l3.7,5.09-5.1,3.7a1.44,1.44,0,1,0,1.7,2.33h0l5.09-3.7,3.7,5.1a1.46,1.46,0,0,0,2,.32,1.42,1.42,0,0,0,.36-2Z"/><path class="cls-3" d="M600.28,18H596V35.52h4.28Z"/><path class="cls-3" d="M611.14,18h-4.27V35.52h4.27Z"/><path class="cls-3" d="M622,18h-4.28V35.52H622Z"/><path class="cls-3" d="M600.28,43H596V60.47h4.28Z"/><path class="cls-3" d="M611.14,43h-4.27V60.47h4.27Z"/><path class="cls-3" d="M611.14,67.89h-4.27V85.41h4.27Z"/><path class="cls-3" d="M622,67.89h-4.28V85.41H622Z"/><path class="cls-3" d="M600.28,92.85H596v17.52h4.28Z"/><path class="cls-3" d="M622,92.85h-4.28v17.52H622Z"/><path class="cls-3" d="M600.28,117.8H596v17.52h4.28Z"/><path class="cls-3" d="M611.14,117.8h-4.27v17.52h4.27Z"/><path class="cls-3" d="M600.28,142.75H596v17.52h4.28Z"/><path class="cls-3" d="M611.14,142.75h-4.27v17.52h4.27Z"/><path class="cls-3" d="M622,142.75h-4.28v17.52H622Z"/><path class="cls-3" d="M87.88,889.25A3.13,3.13,0,1,1,91,886.11h0A3.15,3.15,0,0,1,87.88,889.25ZM91,904.81a3.13,3.13,0,1,0-3.14,3.12h0A3.12,3.12,0,0,0,91,904.81Zm0,18.68a3.13,3.13,0,1,0-3.13,3.13h0A3.12,3.12,0,0,0,91,923.5Zm0,18.7a3.13,3.13,0,1,0-3.14,3.12h0A3.12,3.12,0,0,0,91,942.19Zm0,18.69A3.13,3.13,0,1,0,87.86,964h0A3.14,3.14,0,0,0,91,960.88ZM72.31,886.12a3.12,3.12,0,1,0-3.12,3.13,3.12,3.12,0,0,0,3.12-3.13Zm0,18.69a3.12,3.12,0,1,0-3.12,3.12h0A3.12,3.12,0,0,0,72.31,904.81Zm0,18.68a3.12,3.12,0,1,0-3.12,3.13,3.12,3.12,0,0,0,3.12-3.13Zm0,18.7a3.12,3.12,0,1,0-3.12,3.12h0A3.12,3.12,0,0,0,72.31,942.19Zm0,18.69A3.12,3.12,0,1,0,69.19,964h0A3.14,3.14,0,0,0,72.31,960.88ZM53.62,886.12a3.13,3.13,0,1,0-3.13,3.13,3.13,3.13,0,0,0,3.13-3.13Zm0,18.69a3.13,3.13,0,1,0-3.14,3.12h0A3.14,3.14,0,0,0,53.62,904.81Zm0,18.68a3.13,3.13,0,1,0-3.13,3.13,3.13,3.13,0,0,0,3.13-3.13Zm0,18.7a3.13,3.13,0,1,0-3.14,3.12h0A3.14,3.14,0,0,0,53.62,942.19Zm0,18.69A3.13,3.13,0,1,0,50.48,964h0A3.14,3.14,0,0,0,53.62,960.88ZM34.93,886.12a3.12,3.12,0,1,0-3.12,3.13,3.12,3.12,0,0,0,3.12-3.13Zm0,18.69a3.12,3.12,0,1,0-3.12,3.12h0A3.12,3.12,0,0,0,34.93,904.81Zm0,18.68a3.12,3.12,0,1,0-3.12,3.13,3.12,3.12,0,0,0,3.12-3.13Zm0,18.7a3.12,3.12,0,1,0-3.12,3.12h0A3.12,3.12,0,0,0,34.93,942.19Zm0,18.69A3.12,3.12,0,1,0,31.81,964h0A3.14,3.14,0,0,0,34.93,960.88ZM16.25,886.12a3.13,3.13,0,1,0-3.13,3.13,3.13,3.13,0,0,0,3.13-3.13Zm0,18.69a3.13,3.13,0,1,0-3.14,3.12h0A3.14,3.14,0,0,0,16.25,904.81Zm0,18.68a3.13,3.13,0,1,0-3.13,3.13,3.13,3.13,0,0,0,3.13-3.13Zm0,18.7a3.13,3.13,0,1,0-3.14,3.12h0A3.14,3.14,0,0,0,16.25,942.19Zm0,18.69A3.13,3.13,0,1,0,13.11,964h0A3.15,3.15,0,0,0,16.25,960.88Z"/></g></g></svg>