<svg width="20" height="21" viewBox="0 0 20 21" fill="none" xmlns="http://www.w3.org/2000/svg">
<path d="M10 11.5834C9.8917 11.5834 9.78336 11.5584 9.68336 11.5L2.32503 7.24171C2.03336 7.06671 1.92503 6.68338 2.10003 6.38338C2.27503 6.08338 2.65836 5.98338 2.95836 6.15838L10 10.2334L17 6.18338C17.3 6.00838 17.6834 6.11671 17.8584 6.40838C18.0334 6.70838 17.925 7.09171 17.6334 7.26671L10.325 11.5C10.2167 11.55 10.1084 11.5834 10 11.5834Z" fill="#718096"/>
<path d="M10 19.1333C9.65833 19.1333 9.375 18.85 9.375 18.5083V10.95C9.375 10.6083 9.65833 10.325 10 10.325C10.3417 10.325 10.625 10.6083 10.625 10.95V18.5083C10.625 18.85 10.3417 19.1333 10 19.1333Z" fill="#718096"/>
<path d="M10 19.4583C9.2667 19.4583 8.5417 19.3 7.9667 18.9833L3.5167 16.5083C2.30837 15.8416 1.3667 14.2333 1.3667 12.85V8.14163C1.3667 6.75829 2.30837 5.15829 3.5167 4.48329L7.9667 2.01663C9.10837 1.38329 10.8917 1.38329 12.0334 2.01663L16.4834 4.49163C17.6917 5.15829 18.6334 6.76663 18.6334 8.14996V12.8583C18.6334 14.2416 17.6917 15.8416 16.4834 16.5166L12.0334 18.9833C11.4584 19.3 10.7334 19.4583 10 19.4583ZM10 2.79163C9.47503 2.79163 8.95837 2.89996 8.57503 3.10829L4.12503 5.58329C3.32503 6.02496 2.6167 7.22496 2.6167 8.14163V12.85C2.6167 13.7666 3.32503 14.9666 4.12503 15.4166L8.57503 17.8916C9.33337 18.3166 10.6667 18.3166 11.425 17.8916L15.875 15.4166C16.675 14.9666 17.3834 13.775 17.3834 12.85V8.14163C17.3834 7.22496 16.675 6.02496 15.875 5.57496L11.425 3.09996C11.0417 2.89996 10.525 2.79163 10 2.79163Z" fill="#718096"/>
</svg>
