<svg width="20" height="20" viewBox="0 0 20 20" fill="none" xmlns="http://www.w3.org/2000/svg">
<path d="M18.3337 18.9583H1.66699C1.32533 18.9583 1.04199 18.675 1.04199 18.3333C1.04199 17.9917 1.32533 17.7083 1.66699 17.7083H18.3337C18.6753 17.7083 18.9587 17.9917 18.9587 18.3333C18.9587 18.675 18.6753 18.9583 18.3337 18.9583Z" fill="#718096"/>
<path d="M11.875 18.9583H8.125C7.78333 18.9583 7.5 18.675 7.5 18.3333V3.33332C7.5 1.89999 8.29167 1.04166 9.625 1.04166H10.375C11.7083 1.04166 12.5 1.89999 12.5 3.33332V18.3333C12.5 18.675 12.2167 18.9583 11.875 18.9583ZM8.75 17.7083H11.25V3.33332C11.25 2.37499 10.8 2.29166 10.375 2.29166H9.625C9.2 2.29166 8.75 2.37499 8.75 3.33332V17.7083Z" fill="#718096"/>
<path d="M5.83333 18.9583H2.5C2.15833 18.9583 1.875 18.675 1.875 18.3333V8.33332C1.875 6.89999 2.60833 6.04166 3.83333 6.04166H4.5C5.725 6.04166 6.45833 6.89999 6.45833 8.33332V18.3333C6.45833 18.675 6.175 18.9583 5.83333 18.9583ZM3.125 17.7083H5.20833V8.33332C5.20833 7.29166 4.75 7.29166 4.5 7.29166H3.83333C3.58333 7.29166 3.125 7.29166 3.125 8.33332V17.7083Z" fill="#718096"/>
<path d="M17.5003 18.9583H14.167C13.8253 18.9583 13.542 18.675 13.542 18.3333V12.5C13.542 11.0667 14.2753 10.2083 15.5003 10.2083H16.167C17.392 10.2083 18.1253 11.0667 18.1253 12.5V18.3333C18.1253 18.675 17.842 18.9583 17.5003 18.9583ZM14.792 17.7083H16.8753V12.5C16.8753 11.4583 16.417 11.4583 16.167 11.4583H15.5003C15.2503 11.4583 14.792 11.4583 14.792 12.5V17.7083Z" fill="#718096"/>
</svg>
