<svg width="20" height="21" viewBox="0 0 20 21" fill="none" xmlns="http://www.w3.org/2000/svg">
<path d="M8.42479 15.625H5.26648C4.92481 15.625 4.64148 15.3417 4.64148 15V10.7333C4.64148 9.86667 5.3498 9.15833 6.21647 9.15833H8.42479C8.76646 9.15833 9.04979 9.44166 9.04979 9.78333V14.9917C9.04979 15.3417 8.76646 15.625 8.42479 15.625ZM5.89148 14.375H7.79979V10.4167H6.21647C6.04147 10.4167 5.89148 10.5583 5.89148 10.7416V14.375Z" fill="#718096"/>
<path d="M11.5751 15.625H8.41675C8.07508 15.625 7.79175 15.3417 7.79175 15V6.95001C7.79175 6.08335 8.50007 5.375 9.36673 5.375H10.6334C11.5001 5.375 12.2084 6.08335 12.2084 6.95001V15C12.2001 15.3417 11.9251 15.625 11.5751 15.625ZM9.05006 14.375H10.9584V6.95001C10.9584 6.77501 10.8168 6.625 10.6334 6.625H9.36673C9.19173 6.625 9.04175 6.76668 9.04175 6.95001V14.375H9.05006Z" fill="#718096"/>
<path d="M14.7334 15.625H11.5751C11.2334 15.625 10.9501 15.3416 10.9501 15V11.2083C10.9501 10.8666 11.2334 10.5833 11.5751 10.5833H13.7834C14.6501 10.5833 15.3584 11.2916 15.3584 12.1583V15C15.3584 15.3416 15.0834 15.625 14.7334 15.625ZM12.2001 14.375H14.1084V12.1583C14.1084 11.9833 13.9667 11.8333 13.7834 11.8333H12.2001V14.375Z" fill="#718096"/>
<path d="M12.5 19.4583H7.49996C2.97496 19.4583 1.04163 17.525 1.04163 13V7.99996C1.04163 3.47496 2.97496 1.54163 7.49996 1.54163H12.5C17.025 1.54163 18.9583 3.47496 18.9583 7.99996V13C18.9583 17.525 17.025 19.4583 12.5 19.4583ZM7.49996 2.79163C3.65829 2.79163 2.29163 4.15829 2.29163 7.99996V13C2.29163 16.8416 3.65829 18.2083 7.49996 18.2083H12.5C16.3416 18.2083 17.7083 16.8416 17.7083 13V7.99996C17.7083 4.15829 16.3416 2.79163 12.5 2.79163H7.49996Z" fill="#718096"/>
</svg>
