<svg width="28" height="28" viewBox="0 0 28 28" fill="none" xmlns="http://www.w3.org/2000/svg">
<rect width="28" height="28" rx="8" fill="#FFF5F7"/>
<path d="M20.0004 10.4866C19.9871 10.4866 19.9671 10.4866 19.9471 10.4866C16.4204 10.1332 12.9004 9.9999 9.41377 10.3532L8.05377 10.4866C7.77377 10.5132 7.5271 10.3132 7.50043 10.0332C7.47377 9.75324 7.67377 9.51324 7.9471 9.48657L9.3071 9.35324C12.8538 8.99324 16.4471 9.13324 20.0471 9.48657C20.3204 9.51324 20.5204 9.7599 20.4938 10.0332C20.4738 10.2932 20.2538 10.4866 20.0004 10.4866Z" fill="#FF4747"/>
<path d="M11.6665 9.81325C11.6398 9.81325 11.6132 9.81325 11.5798 9.80659C11.3132 9.75992 11.1265 9.49992 11.1732 9.23325L11.3198 8.35992C11.4265 7.71992 11.5732 6.83325 13.1265 6.83325H14.8732C16.4332 6.83325 16.5798 7.75325 16.6798 8.36659L16.8265 9.23325C16.8732 9.50659 16.6865 9.76659 16.4198 9.80659C16.1465 9.85325 15.8865 9.66659 15.8465 9.39992L15.6998 8.53325C15.6065 7.95325 15.5865 7.83992 14.8798 7.83992H13.1332C12.4265 7.83992 12.4132 7.93325 12.3132 8.52659L12.1598 9.39325C12.1198 9.63992 11.9065 9.81325 11.6665 9.81325Z" fill="#FF4747"/>
<path d="M16.1396 21.1667H11.8596C9.53294 21.1667 9.43961 19.8801 9.36627 18.8401L8.93294 12.1267C8.91294 11.8534 9.12627 11.6134 9.39961 11.5934C9.67961 11.5801 9.91294 11.7867 9.93294 12.0601L10.3663 18.7734C10.4396 19.7867 10.4663 20.1667 11.8596 20.1667H16.1396C17.5396 20.1667 17.5663 19.7867 17.6329 18.7734L18.0663 12.0601C18.0863 11.7867 18.3263 11.5801 18.5996 11.5934C18.8729 11.6134 19.0863 11.8467 19.0663 12.1267L18.6329 18.8401C18.5596 19.8801 18.4663 21.1667 16.1396 21.1667Z" fill="#FF4747"/>
<path d="M15.1067 17.5H12.8867C12.6134 17.5 12.3867 17.2733 12.3867 17C12.3867 16.7267 12.6134 16.5 12.8867 16.5H15.1067C15.3801 16.5 15.6067 16.7267 15.6067 17C15.6067 17.2733 15.3801 17.5 15.1067 17.5Z" fill="#FF4747"/>
<path d="M15.6673 14.8333H12.334C12.0607 14.8333 11.834 14.6066 11.834 14.3333C11.834 14.0599 12.0607 13.8333 12.334 13.8333H15.6673C15.9407 13.8333 16.1673 14.0599 16.1673 14.3333C16.1673 14.6066 15.9407 14.8333 15.6673 14.8333Z" fill="#FF4747"/>
</svg>
