<svg width="28" height="28" viewBox="0 0 28 28" fill="none" xmlns="http://www.w3.org/2000/svg">
<rect width="28" height="28" rx="8" fill="#FAFAFA"/>
<path d="M9.69332 19.0134C9.28666 19.0134 8.90666 18.8734 8.63332 18.6134C8.28666 18.2868 8.11999 17.7934 8.17999 17.2601L8.42666 15.1001C8.47332 14.6934 8.71999 14.1534 9.00666 13.8601L14.48 8.06678C15.8467 6.62011 17.2733 6.58011 18.72 7.94678C20.1667 9.31345 20.2067 10.7401 18.84 12.1868L13.3667 17.9801C13.0867 18.2801 12.5667 18.5601 12.16 18.6268L10.0133 18.9934C9.89999 19.0001 9.79999 19.0134 9.69332 19.0134ZM16.62 7.94011C16.1067 7.94011 15.66 8.26011 15.2067 8.74011L9.73332 14.5401C9.59999 14.6801 9.44666 15.0134 9.41999 15.2068L9.17332 17.3668C9.14666 17.5868 9.19999 17.7668 9.31999 17.8801C9.43999 17.9934 9.61999 18.0334 9.83999 18.0001L11.9867 17.6334C12.18 17.6001 12.5 17.4268 12.6333 17.2868L18.1067 11.4934C18.9333 10.6134 19.2333 9.80011 18.0267 8.66678C17.4933 8.15345 17.0333 7.94011 16.62 7.94011Z" fill="#718096"/>
<path d="M17.5609 13.3C17.5476 13.3 17.5276 13.3 17.5143 13.3C15.4343 13.0933 13.7609 11.5133 13.4409 9.44665C13.4009 9.17331 13.5876 8.91998 13.8609 8.87331C14.1343 8.83331 14.3876 9.01998 14.4343 9.29331C14.6876 10.9066 15.9943 12.1466 17.6209 12.3066C17.8943 12.3333 18.0943 12.58 18.0676 12.8533C18.0343 13.1066 17.8143 13.3 17.5609 13.3Z" fill="#718096"/>
<path d="M20 21.1667H8C7.72667 21.1667 7.5 20.9401 7.5 20.6667C7.5 20.3934 7.72667 20.1667 8 20.1667H20C20.2733 20.1667 20.5 20.3934 20.5 20.6667C20.5 20.9401 20.2733 21.1667 20 21.1667Z" fill="#718096"/>
</svg>
