<svg width="20" height="21" viewBox="0 0 20 21" fill="none" xmlns="http://www.w3.org/2000/svg">
<path d="M12.5 19.4583H7.49996C2.97496 19.4583 1.04163 17.525 1.04163 13V7.99996C1.04163 3.47496 2.97496 1.54163 7.49996 1.54163H12.5C17.025 1.54163 18.9583 3.47496 18.9583 7.99996V13C18.9583 17.525 17.025 19.4583 12.5 19.4583ZM7.49996 2.79163C3.65829 2.79163 2.29163 4.15829 2.29163 7.99996V13C2.29163 16.8416 3.65829 18.2083 7.49996 18.2083H12.5C16.3416 18.2083 17.7083 16.8416 17.7083 13V7.99996C17.7083 4.15829 16.3416 2.79163 12.5 2.79163H7.49996Z" fill="#718096"/>
<path d="M7.50004 9.45833C6.23337 9.45833 5.20837 8.43333 5.20837 7.16667C5.20837 5.9 6.23337 4.875 7.50004 4.875C8.76671 4.875 9.79171 5.9 9.79171 7.16667C9.79171 8.43333 8.76671 9.45833 7.50004 9.45833ZM7.50004 6.125C6.92504 6.125 6.45837 6.59167 6.45837 7.16667C6.45837 7.74167 6.92504 8.20833 7.50004 8.20833C8.07504 8.20833 8.54171 7.74167 8.54171 7.16667C8.54171 6.59167 8.07504 6.125 7.50004 6.125Z" fill="#718096"/>
<path d="M2.22497 16.9167C2.02497 16.9167 1.82497 16.8167 1.70831 16.6417C1.51664 16.3583 1.59164 15.9667 1.88331 15.775L5.99164 13.0167C6.89164 12.4083 8.13331 12.4833 8.94997 13.175L9.22497 13.4167C9.64164 13.775 10.35 13.775 10.7583 13.4167L14.225 10.4417C15.1083 9.68334 16.5 9.68334 17.3916 10.4417L18.75 11.6083C19.0083 11.8333 19.0416 12.225 18.8166 12.4917C18.5916 12.75 18.2 12.7833 17.9333 12.5583L16.575 11.3917C16.1583 11.0333 15.45 11.0333 15.0333 11.3917L11.5666 14.3667C10.6833 15.125 9.29164 15.125 8.39997 14.3667L8.12497 14.125C7.74164 13.8 7.10831 13.7667 6.68331 14.0583L2.57497 16.8167C2.46664 16.8833 2.34164 16.9167 2.22497 16.9167Z" fill="#718096"/>
</svg>
