<svg width="20" height="20" viewBox="0 0 20 20" fill="none" xmlns="http://www.w3.org/2000/svg">
<path d="M6.66699 18.5999C6.43366 18.5999 6.19198 18.5416 5.97531 18.4249C5.50031 18.1749 5.20866 17.6749 5.20866 17.1416V15.9583C2.69199 15.7 1.04199 13.8499 1.04199 11.1999V6.19996C1.04199 3.33329 2.96699 1.40829 5.83366 1.40829H14.167C17.0337 1.40829 18.9587 3.33329 18.9587 6.19996V11.1999C18.9587 14.0666 17.0337 15.9916 14.167 15.9916H11.0253L7.4753 18.3583C7.23363 18.5166 6.95033 18.5999 6.66699 18.5999ZM5.83366 2.64995C3.68366 2.64995 2.29199 4.04162 2.29199 6.19162V11.1917C2.29199 13.3417 3.68366 14.7333 5.83366 14.7333C6.17533 14.7333 6.45866 15.0167 6.45866 15.3583V17.1333C6.45866 17.2417 6.52533 17.2916 6.567 17.3167C6.60866 17.3417 6.692 17.3666 6.78367 17.3083L10.492 14.8417C10.592 14.775 10.717 14.7333 10.842 14.7333H14.1753C16.3253 14.7333 17.717 13.3417 17.717 11.1917V6.19162C17.717 4.04162 16.3253 2.64995 14.1753 2.64995H5.83366Z" fill="#718096"/>
<path d="M9.99952 10.0916C9.65786 10.0916 9.37452 9.80831 9.37452 9.46664V9.29168C9.37452 8.32501 10.0828 7.85 10.3495 7.66667C10.6578 7.45833 10.7578 7.31667 10.7578 7.10001C10.7578 6.68334 10.4162 6.34164 9.99952 6.34164C9.58286 6.34164 9.24121 6.68334 9.24121 7.10001C9.24121 7.44167 8.95788 7.72501 8.61621 7.72501C8.27454 7.72501 7.99121 7.44167 7.99121 7.10001C7.99121 5.99167 8.89119 5.09164 9.99952 5.09164C11.1079 5.09164 12.0078 5.99167 12.0078 7.10001C12.0078 8.05001 11.3079 8.52499 11.0495 8.69999C10.7245 8.91666 10.6245 9.05834 10.6245 9.29168V9.46664C10.6245 9.81664 10.3412 10.0916 9.99952 10.0916Z" fill="#718096"/>
<path d="M10 12.1667C9.65 12.1667 9.375 11.8833 9.375 11.5417C9.375 11.2 9.65833 10.9167 10 10.9167C10.3417 10.9167 10.625 11.2 10.625 11.5417C10.625 11.8833 10.35 12.1667 10 12.1667Z" fill="#718096"/>
</svg>
