<svg width="20" height="21" viewBox="0 0 20 21" fill="none" xmlns="http://www.w3.org/2000/svg">
<path d="M14.1666 18.2083H5.83329C2.79163 18.2083 1.04163 16.4583 1.04163 13.4166V7.58329C1.04163 4.54163 2.79163 2.79163 5.83329 2.79163H14.1666C17.2083 2.79163 18.9583 4.54163 18.9583 7.58329V13.4166C18.9583 16.4583 17.2083 18.2083 14.1666 18.2083ZM5.83329 4.04163C3.44996 4.04163 2.29163 5.19996 2.29163 7.58329V13.4166C2.29163 15.8 3.44996 16.9583 5.83329 16.9583H14.1666C16.55 16.9583 17.7083 15.8 17.7083 13.4166V7.58329C17.7083 5.19996 16.55 4.04163 14.1666 4.04163H5.83329Z" fill="#718096"/>
<path d="M10 13.625C8.275 13.625 6.875 12.225 6.875 10.5C6.875 8.775 8.275 7.375 10 7.375C11.725 7.375 13.125 8.775 13.125 10.5C13.125 12.225 11.725 13.625 10 13.625ZM10 8.625C8.96667 8.625 8.125 9.46667 8.125 10.5C8.125 11.5333 8.96667 12.375 10 12.375C11.0333 12.375 11.875 11.5333 11.875 10.5C11.875 9.46667 11.0333 8.625 10 8.625Z" fill="#718096"/>
<path d="M4.58337 13.2083C4.24171 13.2083 3.95837 12.925 3.95837 12.5833V8.41663C3.95837 8.07496 4.24171 7.79163 4.58337 7.79163C4.92504 7.79163 5.20837 8.07496 5.20837 8.41663V12.5833C5.20837 12.925 4.92504 13.2083 4.58337 13.2083Z" fill="#718096"/>
<path d="M15.4166 13.2083C15.075 13.2083 14.7916 12.925 14.7916 12.5833V8.41663C14.7916 8.07496 15.075 7.79163 15.4166 7.79163C15.7583 7.79163 16.0416 8.07496 16.0416 8.41663V12.5833C16.0416 12.925 15.7583 13.2083 15.4166 13.2083Z" fill="#718096"/>
</svg>
