<svg width="25" height="24" viewBox="0 0 25 24" fill="none" xmlns="http://www.w3.org/2000/svg">
<path d="M12.9604 22.75C12.7904 22.75 12.6204 22.75 12.4504 22.74C6.85044 22.49 2.17044 17.98 1.78044 12.48C1.44044 7.75999 4.17044 3.34999 8.57044 1.49999C9.82044 0.979992 10.4804 1.37999 10.7604 1.66999C11.0404 1.94999 11.4304 2.59999 10.9104 3.78999C10.4504 4.84999 10.2204 5.97999 10.2304 7.13999C10.2504 11.57 13.9304 15.33 18.4204 15.51C19.0704 15.54 19.7104 15.49 20.3304 15.38C21.6504 15.14 22.2004 15.67 22.4104 16.01C22.6204 16.35 22.8604 17.08 22.0604 18.16C19.9404 21.06 16.5704 22.75 12.9604 22.75ZM3.27044 12.37C3.61044 17.13 7.67044 21.03 12.5104 21.24C15.8004 21.4 18.9204 19.9 20.8404 17.28C20.9904 17.07 21.0604 16.92 21.0904 16.84C21.0004 16.83 20.8404 16.82 20.5904 16.87C19.8604 17 19.1004 17.05 18.3504 17.02C13.0704 16.81 8.75044 12.38 8.72044 7.15999C8.72044 5.77999 8.99044 4.44999 9.54044 3.19999C9.64044 2.97999 9.66044 2.82999 9.67044 2.74999C9.58044 2.74999 9.42044 2.76999 9.16044 2.87999C5.35044 4.47999 2.99044 8.29999 3.27044 12.37Z" fill="#212121"/>
</svg>
