<svg width="48" height="48" viewBox="0 0 48 48" fill="none" xmlns="http://www.w3.org/2000/svg">
<rect width="48" height="48" rx="8" fill="white"/>
<path d="M24.0233 33.9517C21.3049 33.9517 18.5866 33.5201 16.0083 32.6567C15.0283 32.3184 14.2816 31.6301 13.9549 30.7317C13.6166 29.8334 13.7333 28.8417 14.2699 27.9551L15.6116 25.7267C15.8916 25.2601 16.1483 24.3267 16.1483 23.7784V20.4067C16.1483 16.0667 19.6833 12.5317 24.0233 12.5317C28.3633 12.5317 31.8983 16.0667 31.8983 20.4067V23.7784C31.8983 24.3151 32.1549 25.2601 32.4349 25.7384L33.7649 27.9551C34.2666 28.7951 34.3599 29.8101 34.0216 30.7317C33.6833 31.6534 32.9483 32.3534 32.0266 32.6567C29.4599 33.5201 26.7416 33.9517 24.0233 33.9517ZM24.0233 14.2817C20.6516 14.2817 17.8983 17.0234 17.8983 20.4067V23.7784C17.8983 24.6301 17.5483 25.8901 17.1166 26.6251L15.7749 28.8534C15.5183 29.2851 15.4483 29.7401 15.5999 30.1251C15.7399 30.5217 16.0899 30.8251 16.5683 30.9884C21.4449 32.6217 26.6133 32.6217 31.4899 30.9884C31.9099 30.8484 32.2366 30.5334 32.3883 30.1134C32.5399 29.6934 32.5049 29.2384 32.2716 28.8534L30.9299 26.6251C30.4866 25.8667 30.1483 24.6184 30.1483 23.7667V20.4067C30.1483 17.0234 27.4066 14.2817 24.0233 14.2817Z" fill="#1A202C"/>
<path d="M26.1934 14.5967C26.1117 14.5967 26.0301 14.585 25.9484 14.5617C25.6101 14.4684 25.2834 14.3984 24.9684 14.3517C23.9767 14.2234 23.0201 14.2934 22.1217 14.5617C21.7951 14.6667 21.4451 14.5617 21.2234 14.3167C21.0017 14.0717 20.9317 13.7217 21.0601 13.4067C21.5384 12.1817 22.7051 11.3767 24.0351 11.3767C25.3651 11.3767 26.5317 12.17 27.0101 13.4067C27.1267 13.7217 27.0684 14.0717 26.8467 14.3167C26.6717 14.5034 26.4267 14.5967 26.1934 14.5967Z" fill="#1A202C"/>
<path d="M24.0234 36.6116C22.8684 36.6116 21.7484 36.1449 20.9318 35.3282C20.1151 34.5116 19.6484 33.3916 19.6484 32.2366H21.3984C21.3984 32.9249 21.6784 33.6016 22.1684 34.0916C22.6584 34.5816 23.3351 34.8616 24.0234 34.8616C25.4701 34.8616 26.6484 33.6832 26.6484 32.2366H28.3984C28.3984 34.6516 26.4384 36.6116 24.0234 36.6116Z" fill="#1A202C"/>
<circle cx="35" cy="16" r="8.75" fill="#FF4747" stroke="#FAFAFA" stroke-width="1.5"/>
<path d="M34.6154 21V14.136L32.9954 15.132V13.332L34.6154 12.36H36.2834V21H34.6154Z" fill="white"/>
</svg>
