<svg width="20" height="21" viewBox="0 0 20 21" fill="none" xmlns="http://www.w3.org/2000/svg">
<path d="M10 13.625C8.275 13.625 6.875 12.225 6.875 10.5C6.875 8.775 8.275 7.375 10 7.375C11.725 7.375 13.125 8.775 13.125 10.5C13.125 12.225 11.725 13.625 10 13.625ZM10 8.625C8.96667 8.625 8.125 9.46667 8.125 10.5C8.125 11.5333 8.96667 12.375 10 12.375C11.0333 12.375 11.875 11.5333 11.875 10.5C11.875 9.46667 11.0333 8.625 10 8.625Z" fill="#718096"/>
<path d="M12.675 18.9916C12.5 18.9916 12.325 18.9666 12.15 18.925C11.6333 18.7833 11.2 18.4583 10.925 18L10.825 17.8333C10.3333 16.9833 9.65829 16.9833 9.16663 17.8333L9.07496 17.9916C8.79996 18.4583 8.36663 18.7916 7.84996 18.925C7.32496 19.0666 6.78329 18.9916 6.32496 18.7166L4.89163 17.8916C4.38329 17.6 4.01663 17.125 3.85829 16.55C3.70829 15.975 3.78329 15.3833 4.07496 14.875C4.31663 14.45 4.38329 14.0666 4.24163 13.825C4.09996 13.5833 3.74163 13.4416 3.24996 13.4416C2.03329 13.4416 1.04163 12.45 1.04163 11.2333V9.76662C1.04163 8.54995 2.03329 7.55829 3.24996 7.55829C3.74163 7.55829 4.09996 7.41662 4.24163 7.17495C4.38329 6.93329 4.32496 6.54995 4.07496 6.12495C3.78329 5.61662 3.70829 5.01662 3.85829 4.44995C4.00829 3.87495 4.37496 3.39995 4.89163 3.10829L6.33329 2.28329C7.27496 1.72495 8.51663 2.04995 9.08329 3.00829L9.18329 3.17495C9.67496 4.02495 10.35 4.02495 10.8416 3.17495L10.9333 3.01662C11.5 2.04995 12.7416 1.72495 13.6916 2.29162L15.125 3.11662C15.6333 3.40829 16 3.88329 16.1583 4.45829C16.3083 5.03329 16.2333 5.62495 15.9416 6.13329C15.7 6.55829 15.6333 6.94162 15.775 7.18329C15.9166 7.42495 16.275 7.56662 16.7666 7.56662C17.9833 7.56662 18.975 8.55829 18.975 9.77495V11.2416C18.975 12.4583 17.9833 13.45 16.7666 13.45C16.275 13.45 15.9166 13.5916 15.775 13.8333C15.6333 14.075 15.6916 14.4583 15.9416 14.8833C16.2333 15.3916 16.3166 15.9916 16.1583 16.5583C16.0083 17.1333 15.6416 17.6083 15.125 17.9L13.6833 18.725C13.3666 18.9 13.025 18.9916 12.675 18.9916ZM9.99996 15.9083C10.7416 15.9083 11.4333 16.375 11.9083 17.2L12 17.3583C12.1 17.5333 12.2666 17.6583 12.4666 17.7083C12.6666 17.7583 12.8666 17.7333 13.0333 17.6333L14.475 16.8C14.6916 16.675 14.8583 16.4666 14.925 16.2166C14.9916 15.9666 14.9583 15.7083 14.8333 15.4916C14.3583 14.675 14.3 13.8333 14.6666 13.1916C15.0333 12.55 15.7916 12.1833 16.7416 12.1833C17.275 12.1833 17.7 11.7583 17.7 11.225V9.75829C17.7 9.23329 17.275 8.79995 16.7416 8.79995C15.7916 8.79995 15.0333 8.43329 14.6666 7.79162C14.3 7.14995 14.3583 6.30829 14.8333 5.49162C14.9583 5.27495 14.9916 5.01662 14.925 4.76662C14.8583 4.51662 14.7 4.31662 14.4833 4.18329L13.0416 3.35829C12.6833 3.14162 12.2083 3.26662 11.9916 3.63329L11.9 3.79162C11.425 4.61662 10.7333 5.08329 9.99163 5.08329C9.24996 5.08329 8.55829 4.61662 8.08329 3.79162L7.99163 3.62495C7.78329 3.27495 7.31663 3.14995 6.95829 3.35829L5.51663 4.19162C5.29996 4.31662 5.13329 4.52495 5.06663 4.77495C4.99996 5.02495 5.03329 5.28329 5.15829 5.49995C5.63329 6.31662 5.69163 7.15829 5.32496 7.79995C4.95829 8.44162 4.19996 8.80829 3.24996 8.80829C2.71663 8.80829 2.29163 9.23329 2.29163 9.76662V11.2333C2.29163 11.7583 2.71663 12.1916 3.24996 12.1916C4.19996 12.1916 4.95829 12.5583 5.32496 13.2C5.69163 13.8416 5.63329 14.6833 5.15829 15.5C5.03329 15.7166 4.99996 15.975 5.06663 16.225C5.13329 16.475 5.29163 16.675 5.50829 16.8083L6.94996 17.6333C7.12496 17.7416 7.33329 17.7666 7.52496 17.7166C7.72496 17.6666 7.89163 17.5333 7.99996 17.3583L8.09163 17.2C8.56663 16.3833 9.25829 15.9083 9.99996 15.9083Z" fill="#718096"/>
</svg>
