<svg width="20" height="21" viewBox="0 0 20 21" fill="none" xmlns="http://www.w3.org/2000/svg">
<path d="M15.1583 15.2917H6.28329C5.45829 15.2917 4.66662 14.9418 4.10829 14.3334C3.54995 13.7251 3.26663 12.9084 3.33329 12.0834L4.02496 3.78342C4.04996 3.52508 3.95829 3.27509 3.78329 3.08342C3.60829 2.89175 3.36662 2.79175 3.10829 2.79175H1.66663C1.32496 2.79175 1.04163 2.50841 1.04163 2.16675C1.04163 1.82508 1.32496 1.54175 1.66663 1.54175H3.11663C3.72496 1.54175 4.29995 1.80008 4.70829 2.24174C4.93329 2.49174 5.09996 2.78342 5.19162 3.10842H15.6C16.4416 3.10842 17.2166 3.44175 17.7833 4.04175C18.3416 4.65008 18.625 5.44175 18.5583 6.28342L18.1083 12.5334C18.0166 14.0584 16.6833 15.2917 15.1583 15.2917ZM5.23329 4.35008L4.58329 12.1834C4.54163 12.6667 4.69996 13.1251 5.02496 13.4834C5.34996 13.8417 5.79995 14.0334 6.28329 14.0334H15.1583C16.025 14.0334 16.8083 13.3001 16.875 12.4334L17.325 6.18342C17.3583 5.69175 17.2 5.22509 16.875 4.88342C16.55 4.53342 16.1 4.34174 15.6083 4.34174H5.23329V4.35008Z" fill="#718096"/>
<path d="M13.5417 19.4583C12.625 19.4583 11.875 18.7083 11.875 17.7917C11.875 16.875 12.625 16.125 13.5417 16.125C14.4583 16.125 15.2083 16.875 15.2083 17.7917C15.2083 18.7083 14.4583 19.4583 13.5417 19.4583ZM13.5417 17.375C13.3083 17.375 13.125 17.5583 13.125 17.7917C13.125 18.025 13.3083 18.2083 13.5417 18.2083C13.775 18.2083 13.9583 18.025 13.9583 17.7917C13.9583 17.5583 13.775 17.375 13.5417 17.375Z" fill="#718096"/>
<path d="M6.87504 19.4583C5.95837 19.4583 5.20837 18.7083 5.20837 17.7917C5.20837 16.875 5.95837 16.125 6.87504 16.125C7.79171 16.125 8.54171 16.875 8.54171 17.7917C8.54171 18.7083 7.79171 19.4583 6.87504 19.4583ZM6.87504 17.375C6.64171 17.375 6.45837 17.5583 6.45837 17.7917C6.45837 18.025 6.64171 18.2083 6.87504 18.2083C7.10837 18.2083 7.29171 18.025 7.29171 17.7917C7.29171 17.5583 7.10837 17.375 6.87504 17.375Z" fill="#718096"/>
<path d="M17.5 7.79163H7.5C7.15833 7.79163 6.875 7.50829 6.875 7.16663C6.875 6.82496 7.15833 6.54163 7.5 6.54163H17.5C17.8417 6.54163 18.125 6.82496 18.125 7.16663C18.125 7.50829 17.8417 7.79163 17.5 7.79163Z" fill="#718096"/>
</svg>
